# xmcd
#
# Track frame offsets:
#	150
#	11862
#	21462
#	32565
#	44120
#	54310
#	65340
#	76215
#	85432
#	97207
#	108762
#	120312
#	130737
#	142587
#	152257
#	163887
#	175505
#	187060
#	197645
#	208057
#
# Disc length: 2931 seconds
#
# Revision: 0
# Processed by: cddbd v1.5.1PL0 Copyright (c) Steve Scherf et al.
# Submitted via: EasyCDDAExtractor 8.0.2.1
#
DISCID=0a0b7114
DTITLE=Exotic Guitars - Sonic Lounge
DYEAR=2000
DGENRE=Acoustic
TTITLE0=Sabre Dance
TTITLE1=The Third Man Theme
TTITLE2=Smoke Gets In Your Eyes
TTITLE3=A Man And A Woman
TTITLE4=Exotic Guitar Boogie
TTITLE5=Melody Of Love
TTITLE6=La Paloma
TTITLE7=The James Bond Theme
TTITLE8=Blue Velvet
TTITLE9=Autumn Leaves
TTITLE10=Indian Love Call
TTITLE11=Harbor Lights
TTITLE12=The Shadow Of Your Smile
TTITLE13=Heartaches
TTITLE14=C'est Si Bon
TTITLE15=Theme From Love Story
TTITLE16=Blue Tango
TTITLE17=Who's Sorry Now
TTITLE18=Blueberry Hill
TTITLE19=Moon River
EXTD=
EXTT0=
EXTT1=
EXTT2=
EXTT3=
EXTT4=
EXTT5=
EXTT6=
EXTT7=
EXTT8=
EXTT9=
EXTT10=
EXTT11=
EXTT12=
EXTT13=
EXTT14=
EXTT15=
EXTT16=
EXTT17=
EXTT18=
EXTT19=
PLAYORDER=
